<svg xmlns="http://www.w3.org/2000/svg" version="1.1" viewBox="-5.0 -10.0 110.0 135.0">
 <g>
  <path d="m33.844 34.098c0.41406 0.47656 0.99219 0.71484 1.5742 0.71484 0.48438 0 0.97266-0.16797 1.3633-0.51172 0.86719-0.75391 0.96094-2.0703 0.20703-2.9414-1.9414-2.2344-3.0117-5.1133-3.0117-8.1133 0-2.9961 1.0703-5.8789 3.0117-8.1133 0.75391-0.86719 0.66406-2.1836-0.20703-2.9414-0.87109-0.75781-2.1836-0.66406-2.9414 0.20703-2.6016 2.9922-4.0312 6.8438-4.0312 10.848s1.4297 7.8555 4.0312 10.848z"/>
  <path d="m63.215 34.301c0.39453 0.34375 0.88281 0.51172 1.3633 0.51172 0.58203 0 1.1641-0.24219 1.5742-0.71484 2.6016-2.9922 4.0312-6.8438 4.0312-10.848s-1.4297-7.8555-4.0312-10.848c-0.75391-0.86719-2.0703-0.96094-2.9414-0.20703-0.86719 0.75391-0.96094 2.0703-0.20703 2.9414 1.9414 2.2344 3.0117 5.1172 3.0117 8.1133s-1.0703 5.8789-3.0117 8.1133c-0.75391 0.86719-0.66406 2.1836 0.20703 2.9414z"/>
  <path d="m74.355 23.25c0 4.9805-1.7812 9.793-5.0156 13.559-0.75 0.87109-0.64844 2.1875 0.22266 2.9375 0.39453 0.33594 0.87891 0.50391 1.3555 0.50391 0.58594 0 1.168-0.24609 1.582-0.72656 3.8867-4.5195 6.0234-10.301 6.0234-16.273 0-5.9766-2.1406-11.754-6.0234-16.273-0.74609-0.87109-2.0625-0.96875-2.9375-0.22266-0.87109 0.75-0.97266 2.0664-0.22266 2.9375 3.2344 3.7656 5.0156 8.582 5.0156 13.559z"/>
  <path d="m29.082 40.25c0.48047 0 0.96094-0.16797 1.3555-0.50391 0.87109-0.75 0.97266-2.0664 0.22266-2.9375-3.2344-3.7656-5.0156-8.5781-5.0156-13.559s1.7812-9.793 5.0156-13.559c0.75-0.87109 0.64844-2.1875-0.22266-2.9375-0.87109-0.74609-2.1875-0.64844-2.9375 0.22266-3.8867 4.5195-6.0234 10.301-6.0234 16.273 0 5.9766 2.1406 11.754 6.0234 16.273 0.41406 0.48047 0.99609 0.72656 1.582 0.72656z"/>
  <path d="m81.102 90.895-24.867-62.172c1.2891-1.4688 2.1016-3.3672 2.1016-5.4727 0-4.5977-3.7383-8.332-8.332-8.332-4.5977 0-8.332 3.7383-8.332 8.332 0 2.1055 0.80859 4.0039 2.1016 5.4727l-24.867 62.172c-0.32031 0.79688-0.11719 1.707 0.51172 2.293 0.39453 0.37109 0.90625 0.56641 1.4258 0.56641 0.30469 0 0.61328-0.066406 0.89844-0.20312l28.266-13.52 28.266 13.52c0.28906 0.13672 0.59375 0.20312 0.89844 0.20312 0.51953 0 1.0273-0.19531 1.4258-0.56641 0.62891-0.58594 0.82812-1.4961 0.51172-2.293zm-15.176-26.723-12.34-8.8164 6.8555-4.8984 5.4844 13.711zm-1.2578 4.2227-14.668 7.0156-14.668-7.0156 14.668-10.477zm-20.312-29.922 2.1719 1.6289-4.0352 3.0273 1.8633-4.6602zm2.9492-7.3789c0.85156 0.29297 1.7461 0.48438 2.6953 0.48438s1.8438-0.19531 2.6953-0.48438l1.3477 3.3711-4.043 3.0312-4.043-3.0312zm10.203 12.035-4.0352-3.0273 2.1719-1.6289 1.8633 4.6602zm-7.5078-0.42188 6.8906 5.168-6.8906 4.9219-6.8906-4.9219zm0-23.625c2.2969 0 4.168 1.8672 4.168 4.168 0 2.2969-1.8672 4.168-4.168 4.168-2.2969 0-4.168-1.8672-4.168-4.168 0-2.2969 1.8672-4.168 4.168-4.168zm-3.582 36.273-12.34 8.8164 5.4844-13.711 6.8555 4.8984zm-21.668 32.129 6.5586-16.395 13.863 6.6289zm30.078-9.7656 13.863-6.6289 6.5586 16.395z"/>
 </g>
</svg>